<svg xmlns="http://www.w3.org/2000/svg" width="16" height="16" fill="currentColor" class="bi bi-robot" viewBox="0 0 16 16">
  <path d="M6 12.5a.5.5 0 0 1 .5-.5h3a.5.5 0 0 1 0 1h-3a.5.5 0 0 1-.5-.5M.086 1.586A2 2 0 0 1 2 0h12a2 2 0 0 1 1.914 1.586L16 3.5V14a2 2 0 0 1-2 2H2a2 2 0 0 1-2-2V3.5zm2.522 1.284c.58-.43 1.2-.812 1.797-1.11.979-.471 1.945-.824 2.57-.945C8.567 1.186 9.529 1.4 10.423 1.77c.7.292 1.403.636 2.001 1.043.748.504 1.403 1.158 1.481 1.158A2 2 0 0 1 14 5.5V14a1 1 0 0 0 1-1V4.31L12.338 3.12C11.362 2.523 10.001 2.07 8.641 1.76c-.979-.227-2.34-.716-3.445-.98C3.058.91 1.499 1.256.876 1.71A2 2 0 0 0 2.5 3.5h.086zM10 8a2 2 0 1 1-4 0 2 2 0 0 1 4 0"/>
</svg>